<?xml version="1.0" encoding="UTF-8"?>
<!-- Generator: Adobe Illustrator 23.0.1, SVG Export Plug-In . SVG Version: 6.00 Build 0)  -->
<svg version="1.1" id="svg2" xmlns:svg="http://www.w3.org/2000/svg" xmlns="http://www.w3.org/2000/svg" xmlns:xlink="http://www.w3.org/1999/xlink" x="0px" y="0px" viewBox="0 0 500 500" enable-background="new 0 0 500 500" xml:space="preserve">
<g>
	<path fill="#FFFFFF" d="M0.5,250c0,137.6,111.9,249.5,249.5,249.5S499.5,387.6,499.5,250S387.6,0.5,250,0.5S0.5,112.4,0.5,250"/>
	<path fill="#0080BA" d="M425.8,427.7c-9,3.1-33.9,9-64.2,9c-88.6,0-130.6-42.1-179.4-51.1l23-103.5h113l14.9-65.5H221.5l17.6-76.4   h118.4L372,73.3H161.8l-71,311c-11.8,1.4-33.9,10.8-40.2,16.3C19,358.5,0,306,0,250C0,112.1,112.1,0,250,0s250,112.1,250,250   C500,319.6,471.5,382.4,425.8,427.7 M250,500c51.5,0,99.5-15.8,139.2-42.5c-9,2.2-19.4,3.6-30.7,3.6   c-112.1,0-140.6-56.5-224.7-56.5c-29.8,0-52,6.8-66.4,15.8C111.7,468.4,177.7,500,250,500"/>
</g>
</svg>